<svg width="60" height="60" viewBox="0 0 60 60" fill="none" xmlns="http://www.w3.org/2000/svg">
<path d="M57.8719 2.12814C56.4995 0.755768 54.6748 0 52.7339 0C50.7935 0 48.9688 0.755768 47.5964 2.12814L37.2588 12.4658C29.2058 20.5188 21.7264 29.2712 15.027 38.4814L5.05554 48.4529C4.5163 48.0643 3.87085 47.8537 3.19336 47.8537C2.34055 47.8537 1.53854 48.186 0.935211 48.7894C0.332337 49.3922 0 50.1942 0 51.0471C0 51.9003 0.332337 52.7019 0.935211 53.3052L1.23688 53.6069C1.5802 53.9497 2.13638 53.9497 2.47971 53.6069C2.82303 53.2635 2.82303 52.7069 2.47971 52.364L2.17804 52.0624C1.61865 51.5025 1.61865 50.592 2.17804 50.0322C2.44949 49.7612 2.80975 49.6115 3.19336 49.6115C3.57651 49.6115 3.93723 49.7612 4.20822 50.0322L9.9678 55.7918C10.2388 56.0628 10.388 56.423 10.388 56.8066C10.388 57.1902 10.2388 57.5505 9.9678 57.8215C9.40796 58.3813 8.49747 58.3813 7.93762 57.8215L4.74518 54.6295C4.40231 54.2862 3.84567 54.2862 3.50235 54.6295C3.15948 54.9728 3.15948 55.5295 3.50235 55.8723L6.69479 59.0648C7.29767 59.6677 8.09967 60 8.95248 60C9.80576 60 10.6078 59.6677 11.2106 59.0648C11.814 58.4615 12.1458 57.6595 12.1458 56.8066C12.1458 56.1292 11.9357 55.4837 11.5471 54.9445L16.2598 50.2318C16.2602 50.2313 16.2602 50.2313 16.2607 50.2313C16.2607 50.2309 16.2607 50.2309 16.2611 50.2304L21.5186 44.973C30.7288 38.2736 39.4812 30.7942 47.5337 22.7412L48.2176 22.0578C48.5609 21.7145 48.5609 21.1578 48.2176 20.8145C47.8743 20.4716 47.3181 20.4716 46.9748 20.8145L46.2909 21.4984C38.4631 29.3266 29.9689 36.6083 21.0338 43.1516L16.8489 38.9662C23.3917 30.0311 30.6734 21.5369 38.5016 13.7091L48.8393 3.37143C49.8798 2.33093 51.2627 1.75781 52.7339 1.75781C54.2056 1.75781 55.5885 2.33093 56.629 3.37097C57.6691 4.41147 58.2422 5.79483 58.2422 7.26608C58.2422 8.73688 57.6691 10.1202 56.629 11.1607L49.2952 18.4946C48.9519 18.8374 48.9519 19.3941 49.2952 19.7374C49.6381 20.0807 50.1947 20.0807 50.538 19.7374L57.8719 12.4036C59.2442 11.0312 60 9.20654 60 7.26608C60 5.32516 59.2442 3.50052 57.8719 2.12814ZM15.639 48.3669L11.6331 44.361L13.0426 42.9515L17.0485 46.9574L15.639 48.3669ZM12.9863 51.0191L8.98087 47.0137L10.3903 45.6038L14.3962 49.6097L12.9863 51.0191ZM6.32812 49.666L7.73758 48.2565L11.7435 52.2624L10.334 53.6719L6.32812 49.666ZM19.7012 44.3047L18.2918 45.7141L14.2859 41.7082L15.6953 40.2988L19.7012 44.3047Z" fill="black"/>
</svg>
