<svg width="60" height="60" viewBox="0 0 60 60" fill="none" xmlns="http://www.w3.org/2000/svg">
<path d="M59.657 0.343682C59.3816 0.0682997 58.9878 -0.0527515 58.6055 0.0218948L50.488 1.59439C50.1788 1.65427 49.9067 1.83602 49.7331 2.09898L45.2215 8.92835L41.0232 11.9039C40.7416 12.1036 40.5622 12.4173 40.533 12.7612C40.5048 13.0951 40.6219 13.424 40.8521 13.6663L27.0479 27.4706C26.5903 27.9282 26.5903 28.6702 27.0479 29.128C27.2768 29.3567 27.5767 29.4712 27.8765 29.4712C28.1764 29.4712 28.4763 29.3567 28.7051 29.128L33.1578 24.6753L35.3256 26.8431L18.1133 44.0551L15.9455 41.8873L21.2477 36.5852C21.7053 36.1276 21.7053 35.3856 21.2477 34.9279C20.7899 34.4704 20.0482 34.4704 19.5903 34.9279L5.65948 48.8587C5.11551 48.5769 4.50745 48.4269 3.87524 48.4269C2.83769 48.4269 1.86424 48.8289 1.13407 49.559C-0.377372 51.0704 -0.377372 53.5299 1.13407 55.0413L4.95919 58.8665C5.71491 59.6222 6.70769 60.0001 7.70036 60.0001C8.69303 60.0001 9.68569 59.6222 10.4415 58.8665C11.6642 57.6438 11.8974 55.8008 11.1418 54.341L21.6822 43.8007L25.9538 48.0723C26.1826 48.301 26.4825 48.4155 26.7824 48.4155C27.0823 48.4155 27.3821 48.301 27.611 48.0723L31.0112 44.6721C31.4688 44.2145 31.4688 43.4725 31.0112 43.0147L26.7396 38.7431L33.5827 31.9001L37.8543 36.1717C38.0741 36.3914 38.3721 36.5149 38.6829 36.5149C38.9937 36.5149 39.2918 36.3914 39.5115 36.1717L42.9116 32.7714C43.3692 32.3138 43.3692 31.5718 42.9116 31.1141L38.64 26.8425L46.3342 19.1483C46.5525 19.3557 46.8411 19.4715 47.1405 19.4715C47.1735 19.4715 47.2064 19.4701 47.2394 19.4674C47.5835 19.4382 47.8971 19.2589 48.0968 18.9772L51.0723 14.7788L57.9017 10.2672C58.1645 10.0936 58.3464 9.82141 58.4063 9.51228L59.9787 1.39482C60.0528 1.01304 59.9322 0.618948 59.657 0.343682ZM16.456 45.7124L14.713 47.4554L12.5453 45.2876L14.2882 43.5448L16.456 45.7124ZM7.44513 50.3878L10.8881 46.9449L13.0558 49.1126L9.61292 52.5555L7.44513 50.3878ZM8.78431 57.2092C8.49698 57.4967 8.11203 57.655 7.70048 57.655C7.28893 57.655 6.90398 57.4967 6.61664 57.2092L2.79152 53.3841C2.19376 52.7864 2.19376 51.8141 2.79152 51.2163C3.07886 50.9289 3.4638 50.7706 3.87536 50.7706C4.28691 50.7706 4.67186 50.9289 4.95919 51.2163L8.78431 55.0415C9.07176 55.3288 9.23008 55.7137 9.23008 56.1253C9.22996 56.537 9.07176 56.9219 8.78431 57.2092ZM28.5253 43.8437L26.7824 45.5866L23.3394 42.1436L25.0823 40.4007L28.5253 43.8437ZM56.5249 6.90165L53.0991 3.47578L57.348 2.65268L56.5249 6.90165ZM50.8973 4.58856L55.4121 9.10343L50.3956 12.4175L47.5834 9.60521L50.8973 4.58856ZM40.383 21.7854L38.2152 19.6176L42.5081 15.3246L44.6759 17.4924L40.383 21.7854ZM40.4259 31.9432L38.683 33.6861L35.24 30.2431L36.9829 28.5002L40.4259 31.9432ZM34.8151 23.0179L36.5579 21.275L38.7257 23.4427L36.9828 25.1855L34.8151 23.0179ZM46.9875 16.4897L43.5111 13.0132L45.949 11.2854L48.7153 14.0518L46.9875 16.4897Z" fill="black"/>
</svg>
