<svg width="54" height="60" viewBox="0 0 54 60" fill="none" xmlns="http://www.w3.org/2000/svg">
<path d="M53.1279 6.63636L49.6348 0.586196C49.3112 0.0256666 48.5944 -0.166411 48.034 0.157273L46.0238 1.31783L45.7021 0.760578C45.3786 0.200166 44.6622 0.00797056 44.1012 0.331655C43.5407 0.655223 43.3486 1.37197 43.6723 1.9325L43.994 2.48975L37.1458 6.44358C36.5852 6.76714 36.3931 7.48389 36.7168 8.04442C37.0405 8.60495 37.7569 8.79715 38.3177 8.47334L48.191 2.773L50.5122 6.79339L22.2422 23.115L19.921 19.0946L29.1837 13.7468C29.7442 13.4232 29.9363 12.7064 29.6126 12.1459C29.2891 11.5854 28.5722 11.3934 28.0118 11.717L7.34462 23.6493C6.15489 24.3361 5.30372 25.4453 4.94816 26.7723C4.5926 28.0993 4.77507 29.4853 5.46205 30.6752L5.52006 30.7756C4.43603 30.3773 3.49662 29.6112 2.90234 28.5816C2.57866 28.0211 1.86203 27.829 1.3015 28.1527C0.740968 28.4763 0.54889 29.193 0.872575 29.7536C1.89226 31.5198 3.60338 32.7586 5.53647 33.224C4.22696 34.5009 3.1931 36.0392 2.50471 37.7506C1.58135 40.0464 1.3213 42.5478 1.7528 44.9843L3.86004 56.8842C4.0745 58.0952 4.868 59.1281 5.98274 59.6474C6.48865 59.8831 7.03289 60 7.5762 60C8.22989 60 8.88218 59.8306 9.46381 59.4947L17.3909 54.918C18.264 54.4139 18.8885 53.6 19.1495 52.6262C19.4105 51.6523 19.2765 50.6352 18.7724 49.7621L15.5277 44.1422C15.0916 43.3869 14.8995 42.5569 14.9254 41.7434L15.2801 42.3576C15.913 43.4538 16.9349 44.2379 18.1576 44.5656C18.5659 44.675 18.9803 44.7292 19.3919 44.7292C20.213 44.7292 21.0234 44.5138 21.7536 44.0923L25.2087 42.0975C26.3049 41.4646 27.089 40.4426 27.4167 39.22C27.7444 37.9972 27.5761 36.7202 26.9432 35.6239L25.5155 33.151L26.3913 32.6454C26.6605 32.49 26.8569 32.234 26.9373 31.9338C27.0178 31.6336 26.9756 31.3136 26.8202 31.0445L26.1586 29.8986L43.2942 20.0054C43.8548 19.6818 44.0468 18.9651 43.7232 18.4046L41.5646 14.6658L52.6989 8.23744C52.9681 8.08204 53.1645 7.82609 53.2449 7.52585C53.3255 7.22537 53.2833 6.90555 53.1279 6.63636ZM7.2122 27.3789C7.40568 26.6566 7.86894 26.053 8.51655 25.679L17.8913 20.2665L19.2145 22.5583L11.7304 26.8793C11.1699 27.2029 10.9778 27.9196 11.3015 28.4801C11.5185 28.8561 11.9124 29.0662 12.3174 29.0662C12.5162 29.0662 12.7178 29.0156 12.9023 28.9091L20.3865 24.5881L21.7096 26.8798L14.2254 31.2008C13.6649 31.5243 13.4728 32.2411 13.7965 32.8016C14.0136 33.1776 14.4074 33.3877 14.8125 33.3877C15.0112 33.3877 15.2128 33.3371 15.3974 33.2305L22.8815 28.9095L24.2047 31.2013L14.8299 36.6139C14.1823 36.9878 13.4279 37.0872 12.7056 36.8935C11.9833 36.7 11.3797 36.2367 11.0057 35.5891L7.49194 29.5031C7.11786 28.8556 7.0186 28.1011 7.2122 27.3789ZM16.7425 50.934C16.9335 51.265 16.9843 51.6504 16.8853 52.0196C16.7864 52.3886 16.5498 52.6971 16.2189 52.8882L8.29177 57.4649C7.88218 57.7013 7.40123 57.7225 6.97242 57.5227C6.54362 57.3229 6.2504 56.9413 6.1679 56.4755L4.06067 44.5756C3.39525 40.8178 4.79488 36.9458 7.6505 34.4656L8.97582 36.7611C9.86297 38.2977 11.4288 39.2026 13.0782 39.3183C12.32 41.2093 12.4025 43.4169 13.4979 45.3141L16.7425 50.934ZM24.9135 36.7957C25.5739 37.9395 25.1806 39.4073 24.0368 40.0676L20.5817 42.0624C20.0276 42.3823 19.3822 42.4671 18.7642 42.3017C18.1462 42.1361 17.6296 41.7397 17.3098 41.1858L16.412 39.6306L17.9395 40.04C18.0411 40.0672 18.1432 40.0802 18.2436 40.0802C18.761 40.0802 19.2346 39.7348 19.3749 39.2113C19.5424 38.5861 19.1714 37.9435 18.5462 37.7759L17.8351 37.5854L23.4858 34.3229L24.9135 36.7957ZM24.9868 27.8688L23.4142 25.1449L26.1381 23.5723L27.7107 26.2962L24.9868 27.8688ZM29.7405 25.1242L28.1679 22.4003L39.5349 15.8376L41.1075 18.5615L29.7405 25.1242Z" fill="black"/>
</svg>
