<svg width="40" height="36" viewBox="0 0 40 36" fill="none" xmlns="http://www.w3.org/2000/svg">
<path d="M22.1354 35.8646H17.8646C17.4331 35.8646 17.0834 35.5148 17.0834 35.0833V31.5937H13.5938C13.1623 31.5937 12.8125 31.244 12.8125 30.8125V27.3229H9.32297C8.89148 27.3229 8.54172 26.9731 8.54172 26.5416V23.052H5.05203C4.62055 23.052 4.27078 22.7022 4.27078 22.2708V18.7812H0.78125C0.349766 18.7812 0 18.4315 0 18V5.18749C0 4.756 0.349766 4.40624 0.78125 4.40624H4.27086V0.916626C4.27086 0.485142 4.62063 0.135376 5.05211 0.135376H13.5938C14.0252 0.135376 14.375 0.485142 14.375 0.916626V4.40624H17.8646C18.2961 4.40624 18.6459 4.756 18.6459 5.18749V8.6771H21.3543V5.18749C21.3543 4.756 21.7041 4.40624 22.1355 4.40624H25.625V0.916626C25.625 0.485142 25.9748 0.135376 26.4062 0.135376H34.948C35.3794 0.135376 35.7292 0.485142 35.7292 0.916626V4.40624H39.2188C39.6502 4.40624 40 4.756 40 5.18749V8.07811C40 8.50959 39.6502 8.85936 39.2188 8.85936C38.7873 8.85936 38.4375 8.50959 38.4375 8.07811V5.96874H34.948C34.5165 5.96874 34.1667 5.61897 34.1667 5.18749V1.69788H27.1875V5.18749C27.1875 5.61897 26.8377 5.96874 26.4062 5.96874H22.9167V9.45835C22.9167 9.88983 22.5669 10.2396 22.1355 10.2396H17.8645C17.433 10.2396 17.0833 9.88983 17.0833 9.45835V5.96874H13.5938C13.1623 5.96874 12.8125 5.61897 12.8125 5.18749V1.69788H5.83328V5.18749C5.83328 5.61897 5.48352 5.96874 5.05203 5.96874H1.5625V17.2187H5.05203C5.48352 17.2187 5.83328 17.5685 5.83328 18V21.4896H9.32289C9.75438 21.4896 10.1041 21.8394 10.1041 22.2708V25.7605H13.5938C14.0252 25.7605 14.375 26.1102 14.375 26.5417V30.0312H17.8646C18.2961 30.0312 18.6459 30.381 18.6459 30.8125L18.6459 34.3021H21.3542V30.8125C21.3542 30.381 21.704 30.0312 22.1355 30.0312H25.625V26.5416C25.625 26.1101 25.9748 25.7604 26.4062 25.7604H29.8959V22.2708C29.8959 21.8393 30.2457 21.4895 30.6771 21.4895H34.1667V18C34.1667 17.5685 34.5165 17.2187 34.948 17.2187H38.4375V15.1094C38.4375 14.6779 38.7873 14.3281 39.2188 14.3281C39.6502 14.3281 40 14.6779 40 15.1094V18C40 18.4315 39.6502 18.7812 39.2188 18.7812H35.7292V22.2708C35.7292 22.7023 35.3794 23.0521 34.948 23.0521H31.4584V26.5417C31.4584 26.9732 31.1086 27.323 30.6771 27.323H27.1875V30.8125C27.1875 31.244 26.8377 31.5937 26.4062 31.5937H22.9167L22.9166 35.0833C22.9166 35.5148 22.5668 35.8646 22.1354 35.8646Z" fill="black"/>
</svg>
